<svg version="1" xmlns="http://www.w3.org/2000/svg" width="800" height="800" viewBox="0 0 600.000000 600.000000"><path d="M137.6 162.6c-3.9.8-9.6 2.6-12.7 3.9-5.5 2.2-6 2.2-10.8.8-4.1-1.1-10.4-1.4-31.8-1.1-25.5.3-27 .4-31.8 2.6-11.4 5.2-18.3 12.6-21.6 23.2-1.7 5.4-1.8 11.5-2 86.2-.2 70.3 0 80.8 1.4 84.4 5.9 15.8 16.5 24.9 31.8 27.3 8 1.3 41.4 1.4 49.2.1 12.9-2.1 23-9.4 29.1-21l3.7-7h135.6l.6 10.1c.4 8 1 11.1 3.1 15.4 5 10 13.7 15.6 25.8 16.3l7.7.5.3 27.1c.3 25.9.4 27.3 2.6 31.3 2.8 5.4 8.1 10.7 13.5 13.5 4.1 2.2 5.1 2.3 39.5 2.6 40.1.3 41.6.1 49.7-7 2.5-2.2 5.8-6.4 7.3-9.2 2.6-5 2.7-5.5 3-25.7l.3-20.6 4.2.8c2.3.4 9.4 1.1 15.7 1.4 59.8 3.4 112.2-40.9 123.7-104.8 2.2-12.5 2.2-36.2-.1-48.2-10.1-53.4-46.5-92.6-95.3-102.4-19.1-3.9-42.9-2.4-61.1 3.8l-8.2 2.9-6.3-2c-5.6-1.7-8.7-1.9-33.2-1.6l-27.1.3-6.6 3.3c-7.5 3.6-14 9.7-17 15.6-1.1 2.3-2.2 4.3-2.4 4.5-.2.2-3.7-2.7-7.7-6.5-10.7-10.1-21.2-15.8-36.8-20.1-5.1-1.4-10.1-1.8-23.9-1.7-16 0-18.3.3-26.3 2.7-4.8 1.5-11.5 4.1-14.8 5.7l-5.9 3-8.3-3.9c-12.3-5.9-18.2-7.2-34.7-7.7-10.6-.3-16.4.1-21.4 1.2zm37.1 17.8c7.4 2 15.1 5.7 20.8 10.1l4.9 3.8 3.1-1.8c15.9-9.6 26.7-13.2 42-14.1 17.3-1 31.6 2.8 45.1 11.8 9.1 6.1 16.2 14.5 21.3 25.3 8.5 17.7 9.1 24.1 9.1 100 0 57.4-.1 61.2-1.8 64.5-4 7.4-13 8.8-19.5 3l-3.2-2.8-.5-68.4c-.6-74.2-.5-72.4-6.5-85.5-8.1-17.9-30.1-27-52.3-21.8-11.2 2.6-16.8 6.1-28.7 17.7-6 5.9-11 10.6-11.1 10.5 0-.1-2.5-3.9-5.3-8.4-10-15.7-18.6-20.7-35.6-20.7-19.3 0-25 4.2-43.1 31.3L101 253.4l-.2-22.4-.3-22.5-15.7-.3-15.8-.3V284h-2.7c-5.4 0-14.2 3.3-18.3 6.7l-4 3.5v-45.9c0-27.6.4-47.2 1-49.4 1.6-5.6 5.1-10.1 10-12.9 4.3-2.4 5.3-2.5 25.5-2.8 22.6-.4 31.2.5 35.7 3.8l2.8 2 5.2-2.9c5.9-3.3 13-5.8 20.4-7.1 6.5-1.2 23.6-.4 30.1 1.4zm306.4.9C526.9 193 559 237.5 559 289.1c0 20.3-3.6 36.4-12 53.5-15 30.7-42.1 51.8-73.4 57.3-7.6 1.4-26.2 1.4-34.6 0-5.5-.8-17.6-4.5-24.2-7.4-1.7-.7-1.8 1.1-1.8 29.9 0 34.1-.2 35-6.4 38-4.3 2-6.9 2-11.2 0-6.6-3.2-6.4-1-6.2-66.9l.3-59.5 12.9 14.6c18 20.4 26.2 25.3 46.4 27.3 37.2 3.8 69.7-19.9 81.9-59.6 2.4-8 2.7-10.3 2.7-25.8.1-14.7-.2-18.2-2.2-25.5-7.9-29.3-29.5-52.2-56.2-59.6-10-2.8-29.2-2.6-39 .5-13.8 4.2-19.7 8.9-39.3 31.3L389 246l-.2-18.8-.3-18.7-15.7-.3-15.8-.3v245.8l-2.1 2.7c-4.4 5.6-11 7-16.7 3.6-6.6-4-6.3 3.9-6-135.3l.3-126.2 2.5-4.5c1.6-2.8 4.3-5.5 7.4-7.5l4.9-3 21.8-.3c24.1-.4 30.2.3 36.2 4.5 3.4 2.4 4.1 2.5 6 1.3 6.7-4.1 22.5-9 33.7-10.4 8.5-1 26.7.4 36.1 2.7zM111.8 293.6c4.7 1.9 8.8 5.8 11.3 10.6 1.7 3.4 1.9 6.1 1.9 28.3 0 27-.3 28.7-6.7 34.7-5.6 5.3-8.2 5.8-33.1 5.8-14.5 0-24.2-.4-26.3-1.1-5.6-1.9-10-5.9-12.5-11.3-2.3-4.9-2.4-6-2.4-28.1s.1-23.2 2.4-28.1c2.5-5.3 6.9-9.4 12.1-11.2 1.7-.6 12.8-1.1 26.3-1.1 18.9-.1 24 .2 27 1.5z"/><path d="M69 332.5V348h32v-31H69v15.5z"/></svg>