<svg version="1" xmlns="http://www.w3.org/2000/svg" width="800" height="800" viewBox="0 0 600.000000 600.000000"><path d="M278.4 36.1c-34.3 2.5-67.1 11.5-98.3 27-25.8 12.7-46.3 27.2-67 47.3-44 42.8-71.5 98.7-78.6 159.5-1.9 16.1-1.9 44.1 0 60.2 7.1 60.8 34.7 116.7 78.6 159.5 20.7 20.1 41.2 34.6 67 47.3 77.6 38.5 169.6 36.6 244.4-5C502.6 488.5 553 410.9 561 322c6.8-76.4-21.8-154.1-76.9-209C437.9 67.1 380 40.7 314.9 36.1c-15.9-1.2-20.3-1.2-36.5 0zM332 58.5c14 2.1 37.3 7.9 49 12.2 25.5 9.4 54.6 26.6 75.5 44.5 32.6 27.9 58.2 66 71.9 106.8 28.5 85.3 8.3 178.8-53.1 244.9-23.4 25.3-58.6 48.8-92.3 61.6-12.3 4.7-36.3 10.8-51.5 13.1-14.8 2.2-50.2 2.5-64.5.5-54.2-7.5-101.2-30.1-139.4-67.1-40.4-39.2-65.2-89.2-72.7-146.5-1.5-11.6-1.5-45.4 0-57 6.1-46.7 24.2-89.5 52.8-125 10.3-12.8 29-30.9 41.8-40.6 34.9-26.2 76.6-43.1 117.5-47.8 5.2-.6 11.1-1.3 13-1.5 7.4-.9 42 .4 52 1.9z"/><path d="M160.3 202.4c-3.9 1.3-8.7 3.3-10.5 4.4l-3.4 2.1-4.9-2.4c-4.6-2.4-5.6-2.5-23.9-2.5-10.5 0-20.7.5-22.6 1-4.1 1.1-9.4 6.1-10.9 10.3-.7 1.8-1.1 15.4-1.1 37.1v34.3l4-1.9c2.2-1.1 6.7-2.2 10-2.5l6-.6V224h28l.2 18.6.3 18.7 10.7-16.1c11.7-17.5 15.1-20.7 24.8-23.6 10.6-3.1 23.4-1.3 31.5 4.5 2.2 1.6 6.5 6.5 9.4 10.9l5.4 8 8.1-8.3c12-12.2 21.9-16.7 36.9-16.7 15.9 0 28.4 7.3 33.9 19.7 4.5 10.1 4.8 14.8 4.8 73.1 0 59.1 0 59.5 4.9 62.2 3.9 2 9.1 1.2 12.2-2l3-2.9-.3-61.3c-.3-61.2-.3-61.3-2.7-68.3-7.1-21.5-20.3-34.3-40.2-39-8.4-1.9-24.8-1.9-32.4 0-6.8 1.8-16.6 6.1-22 9.8l-3.7 2.5-4.7-3.5c-12.9-10-34.2-13.3-50.8-7.9zM417.1 201.1c-6.3 1.2-13.8 3.8-19.3 6.6L393 210l-4.2-2.7c-4.1-2.8-4.2-2.8-24.6-3.1-17.2-.3-21.2-.1-24.8 1.3-5.1 1.9-8.9 6.1-10.4 11.3-.6 2.4-1 39.8-1 109.5 0 113.8-.2 109.9 4.9 112.7 3.5 1.8 8.8 1.2 11.8-1.4l2.8-2.4.5-105.4.5-105.3 13.8-.3 13.7-.3v15.6c0 8.5.3 15.5.8 15.4.4 0 4.8-4.8 9.7-10.6C403 225 412 220.5 434 220.5c10.4.1 13.6.5 19 2.4 22.6 7.9 40.2 28.7 45.5 53.9 1.9 8.9 1.9 25.5-.1 35-5.2 25.5-22.2 45.6-45.3 53.5-7.2 2.5-10.2 3-18.6 3-22.4.1-31-4.6-52.3-28.8l-6.2-7v49.8c0 53.2.1 54.1 4.9 56.7 3.9 2 9.1 1.2 12.2-1.9l2.9-2.9v-54.1l5.3 2.3c12.2 5.4 29.3 7.7 43.1 5.7 47.5-6.7 80.8-52.5 75.6-103.8-4.2-41.1-30.7-73.5-67.3-82.3-8.8-2.1-27.1-2.6-35.6-.9z"/><path d="M91.3 299.5c-2.7 1.6-4.9 4-6.2 6.8-1.9 4-2.1 6.1-2.1 24.6 0 18.1.2 20.6 2 24 4.5 9 9.2 10.3 33.8 9.9 21.4-.3 24.4-1.2 29-8.1 2.7-4 2.7-4.3 3-23.6.2-10.8.1-21.1-.3-22.9-.7-3.7-5.5-9.6-9.6-11.8-2.2-1.1-7.4-1.4-24.1-1.4-20.9 0-21.4.1-25.5 2.5zM131 331v14h-28v-28h28v14z"/></svg>