<svg version="1" xmlns="http://www.w3.org/2000/svg" width="800" height="800" viewBox="0 0 600.000000 600.000000"><path d="M0 300v300h600V0H0v300zm599 0v299H1V1h598v299z"/><path d="M272 36.7c-51.1 5.2-100.3 25.2-140 56.9-11 8.8-32.7 30.5-41.3 41.4-29.5 37.2-47.8 79.7-55.4 128.7-2.3 15.2-2.3 57.4 0 72.6 7.6 49 25.9 91.5 55.4 128.7 8.6 10.9 30.3 32.6 41.3 41.4 35.6 28.4 76.7 46.6 123.5 54.7 15.3 2.7 50.9 3.7 68.1 2 98.4-9.9 183.4-74.4 219.8-166.7 24.2-61.5 24.2-131.3 0-192.8-35.8-90.9-118.6-154.8-215.3-166.1-11.4-1.4-46.1-1.8-56.1-.8zm61.5 21.8c25.9 4.1 47.5 10.9 71 22.4C480 117.9 530.7 190 540 273.5c1.3 11.6 1.3 41.4 0 53-9.3 83.5-60 155.6-135.5 192.6-33.1 16.1-62.3 23.4-99.5 24.6-56.2 1.8-109-14.7-153.5-48C97.8 455.6 64.2 398 54.9 330c-1.7-12.3-1.7-47.7 0-60 9.3-68 42.9-125.6 96.6-165.7 34.2-25.6 73.4-41.2 117.5-46.9 13.7-1.7 50.7-1.1 64.5 1.1z"/><path d="M160.3 202.4c-3.9 1.3-8.7 3.3-10.5 4.4l-3.4 2.1-4.9-2.4c-4.6-2.4-5.6-2.5-23.9-2.5-10.5 0-20.7.5-22.6 1-4.1 1.1-9.4 6.1-10.9 10.3-.7 1.8-1.1 15.4-1.1 37.1v34.3l4-1.9c2.2-1.1 6.7-2.2 10-2.5l6-.6V224h28l.2 18.6.3 18.7 10.7-16.1c11.7-17.5 15.1-20.7 24.8-23.6 10.6-3.1 23.4-1.3 31.5 4.5 2.2 1.6 6.5 6.5 9.4 10.9l5.4 8 8.1-8.3c12-12.2 21.9-16.7 36.9-16.7 15.9 0 28.4 7.3 33.9 19.7 4.5 10.1 4.8 14.8 4.8 73.1 0 59.1 0 59.5 4.9 62.2 3.9 2 9.1 1.2 12.2-2l3-2.9-.3-61.3c-.3-61.2-.3-61.3-2.7-68.3-7.1-21.5-20.3-34.3-40.2-39-8.4-1.9-24.8-1.9-32.4 0-6.8 1.8-16.6 6.1-22 9.8l-3.7 2.5-4.7-3.5c-12.9-10-34.2-13.3-50.8-7.9zM417.1 201.1c-6.3 1.2-13.8 3.8-19.3 6.6L393 210l-4.2-2.7c-4.1-2.8-4.2-2.8-24.6-3.1-17.2-.3-21.2-.1-24.8 1.3-5.1 1.9-8.9 6.1-10.4 11.3-.6 2.4-1 39.8-1 109.5 0 113.8-.2 109.9 4.9 112.7 3.5 1.8 8.8 1.2 11.8-1.4l2.8-2.4.5-105.4.5-105.3 13.8-.3 13.7-.3v15.6c0 8.5.3 15.5.8 15.4.4 0 4.8-4.8 9.7-10.6C403 225 412 220.5 434 220.5c10.4.1 13.6.5 19 2.4 22.6 7.9 40.2 28.7 45.5 53.9 1.9 8.9 1.9 25.5-.1 35-5.2 25.5-22.2 45.6-45.3 53.5-7.2 2.5-10.2 3-18.6 3-22.4.1-31-4.6-52.3-28.8l-6.2-7v49.8c0 53.2.1 54.1 4.9 56.7 3.9 2 9.1 1.2 12.2-1.9l2.9-2.9v-54.1l5.3 2.3c12.2 5.4 29.3 7.7 43.1 5.7 47.5-6.7 80.8-52.5 75.6-103.8-4.2-41.1-30.7-73.5-67.3-82.3-8.8-2.1-27.1-2.6-35.6-.9z"/><path d="M91.3 299.5c-2.7 1.6-4.9 4-6.2 6.8-1.9 4-2.1 6.1-2.1 24.6 0 18.1.2 20.6 2 24 4.5 9 9.2 10.3 33.8 9.9 21.4-.3 24.4-1.2 29-8.1 2.7-4 2.7-4.3 3-23.6.2-10.8.1-21.1-.3-22.9-.7-3.7-5.5-9.6-9.6-11.8-2.2-1.1-7.4-1.4-24.1-1.4-20.9 0-21.4.1-25.5 2.5zM131 331v14h-28v-28h28v14z"/></svg>